<svg xmlns="http://www.w3.org/2000/svg" xmlns:xlink="http://www.w3.org/1999/xlink" version="1.1" x="0px" y="0px" viewBox="0 0 67 83.75" style="enable-background:new 0 0 67 67;" xml:space="preserve"><g><path d="M59.9,55.9l-2,5.1c-0.2,0.5-1,0.5-1.2,0L54.6,56L59.9,55.9z"/><polygon points="60.3,54.2 54.9,54.2 54.9,39 60.2,39  "/><g><path d="M65.5,32.5c0,0.6-0.4,1-1,1h0c-0.6,0-1-0.4-1-1L63.4,21c0-0.5-0.4-0.9-1-0.9c0,0,0,0,0,0l-1.6,0v16.9l-6.7,0V18.4    c0-0.8,0.6-1.5,1.4-1.6v-2c0-1.1,0.9-2,2-2c0.5,0,1.1,0.2,1.4,0.6c0.4,0.4,0.6,0.9,0.6,1.4v2c0.6,0.1,1.1,0.6,1.3,1.1l1.7,0    c0,0,0,0,0,0c1.6,0,3,1.3,3,3L65.5,32.5z"/></g><g><path d="M48,9c-0.6-0.9-1.5-1.5-2.5-1.5h-8.2v4.4c0,0.1,0,0.2,0,0.2h6.6v46.3H5.8V12c0.3,0,0.4,0,0.4,0h6.7c0-0.1,0-0.2,0-0.2V7.5    H5.1c0,0-0.2,0-0.9,0c-1.5,0-2.6,1.2-2.6,2.6v50.2c0,1.5,1.2,2.6,2.6,2.6h41.4c1.1,0,2-0.7,2.6-1.5c0.3-0.4,0.5-1,0.5-1.5V11.3    C48.6,10.5,48.5,9.7,48,9z"/><path d="M35.5,6v5.8c0,1.1-0.9,2-2,2H17.1c-1.1,0-2-0.9-2-2V6c0-1.1,0.9-2,2-2h16.5C34.6,4.1,35.5,4.9,35.5,6z"/><g><path d="M39.7,51.8c0,0.6-0.5,1-1,1H11.5c-0.6,0-1-0.5-1-1c0-0.6,0.4-1,1-1h27.2C39.3,50.8,39.7,51.3,39.7,51.8z"/><path d="M10.4,43.6c0-0.6,0.4-1,1-1h27.1c0.6,0,1,0.5,1,1c0,0.6-0.5,1-1,1H11.5C10.9,44.6,10.4,44.2,10.4,43.6z"/><path d="M10.4,27.2c0-0.6,0.4-1,1-1h27.1c0.6,0,1,0.4,1,1c0,0.6-0.5,1-1,1H11.5C10.9,28.2,10.4,27.8,10.4,27.2z"/><path d="M10.4,19c0-0.6,0.4-1,1-1h27.2c0.6,0,1,0.5,1,1c0,0.6-0.5,1-1,1H11.5C10.9,20,10.4,19.6,10.4,19z"/><path d="M39.7,35.4c0,0.6-0.5,1-1,1H11.5c-0.6,0-1-0.5-1-1s0.4-1,1-1h27.2C39.3,34.4,39.7,34.9,39.7,35.4z"/></g></g></g><text x="0" y="82" fill="#000000" font-size="5px" font-weight="bold" font-family="'Helvetica Neue', Helvetica, Arial-Unicode, Arial, Sans-serif">Created by Vectors Point</text><text x="0" y="87" fill="#000000" font-size="5px" font-weight="bold" font-family="'Helvetica Neue', Helvetica, Arial-Unicode, Arial, Sans-serif">from the Noun Project</text></svg>